<svg xmlns="http://www.w3.org/2000/svg" xmlns:xlink="http://www.w3.org/1999/xlink" width="262.213" height="82.727" viewBox="0 0 262.213 82.727"><defs><style>.a{fill:#222639;}.b{fill:#0075ed;}.c{fill:url(#a);}.d{opacity:0.3;}.e{fill:url(#b);}.f{opacity:0.44;}.g{fill:url(#c);}.h,.i{opacity:0.35;}.h{fill:url(#d);}.i{fill:url(#e);}</style><linearGradient id="a" y1="0.5" x2="1" y2="0.5" gradientUnits="objectBoundingBox"><stop offset="0" stop-color="#ffbf34"/><stop offset="0.006" stop-color="#ffc033"/><stop offset="0.161" stop-color="#ffcf24"/><stop offset="0.287" stop-color="#ffd41f"/><stop offset="0.723" stop-color="#3ac0cc"/></linearGradient><linearGradient id="b" x1="-0.201" y1="0.499" x2="1" y2="0.499" gradientUnits="objectBoundingBox"><stop offset="0" stop-color="#00248c"/><stop offset="0.213" stop-color="#002c94"/><stop offset="0.551" stop-color="#0042ab"/><stop offset="0.863" stop-color="#005bc6"/></linearGradient><linearGradient id="c" x1="-3.836" y1="0.5" x2="1.001" y2="0.5" xlink:href="#b"/><linearGradient id="d" x1="0" y1="0.5" x2="5.578" y2="0.5" xlink:href="#b"/><linearGradient id="e" x1="-1.366" y1="0.5" x2="1.65" y2="0.5" xlink:href="#b"/></defs><g transform="translate(-49.5 -42.3)"><g transform="translate(122.604 48.501)"><path class="a" d="M330.974,65.5a4.628,4.628,0,0,1,2.486.588,2.337,2.337,0,0,1,.909,2.219c-.107,7.056-.134,11.333-.134,12.8,1.31-2.165,3.5-3.261,6.575-3.261a9.7,9.7,0,0,1,7.538,3.261,11.214,11.214,0,0,1,2.94,7.858,11.677,11.677,0,0,1-3.154,8.313,10.552,10.552,0,0,1-8.046,3.368,8.031,8.031,0,0,1-3.769-.936,6.356,6.356,0,0,1-2.673-2.566L333.54,98.3c-.321,1.5-1.363,2.192-3.154,2.112-1.791-.027-2.646-1.176-2.593-3.448l.134-8.634-.053-19.753C327.9,66.516,328.943,65.5,330.974,65.5Zm12.3,19.619a4.606,4.606,0,0,0-3.528-1.55,5.28,5.28,0,0,0-3.876,1.55,6.5,6.5,0,0,0-.08,8.393,4.758,4.758,0,0,0,3.582,1.6,5,5,0,0,0,3.769-1.737,6.2,6.2,0,0,0,1.6-4.33A5.473,5.473,0,0,0,343.27,85.119Z" transform="translate(-326.511 -65.5)"/><path class="a" d="M436.341,112.187a2.214,2.214,0,0,1,2.432,1.871l.294,1.924a6.692,6.692,0,0,1,2.459-2.913A6.138,6.138,0,0,1,444.948,112c1.951,0,2.913,1.016,2.913,3.02a3.638,3.638,0,0,1-.668,2.219,2.263,2.263,0,0,1-1.924.936h-.722a4.513,4.513,0,0,0-3.689,1.711,7.864,7.864,0,0,0-1.39,5.105c0,.267.027,1.39.08,3.395a31.006,31.006,0,0,1-.027,3.555c-.027,1.791-1.123,2.673-3.314,2.673a3.592,3.592,0,0,1-2.406-.722,3.321,3.321,0,0,1-.8-2.539c0-1.256.027-3.207.08-5.88s.08-4.544.08-5.64c0-.508,0-1.283-.027-2.352-.027-1.042-.027-1.844-.027-2.352C433.134,113.176,434.2,112.187,436.341,112.187Z" transform="translate(-403.598 -99.571)"/><path class="a" d="M506.775,116.021v7.858q0,5.613,3.608,5.613,4.651,0,4.651-7.137l.053-6.575a2.84,2.84,0,0,1,.962-2.352,3.787,3.787,0,0,1,2.432-.775c2.138,0,3.208,1.016,3.208,3.02,0,.027,0,.454-.027,1.256s-.027,1.657-.027,2.593v3.341c0,1.31.027,2.486.053,3.555.027,1.256.08,2.539.107,3.876q.08,2,.08,2.245a2.121,2.121,0,0,1-.936,1.844,3.92,3.92,0,0,1-2.272.642c-1.63,0-2.593-.668-2.887-1.978,0-.107-.027-.347-.08-.8s-.107-.829-.16-1.176a7.2,7.2,0,0,1-6.6,4.116c-2.94,0-5.132-.936-6.575-2.78a11.923,11.923,0,0,1-2.165-7.538c0-.882,0-2.406.027-4.544s.027-3.635.027-4.517c0-2.138,1.2-3.208,3.635-3.208C505.813,112.653,506.775,113.776,506.775,116.021Z" transform="translate(-452.836 -100.011)"/><path class="a" d="M603.327,115.562a3.957,3.957,0,0,1,.775-2.646,3.206,3.206,0,0,1,2.539-.855c1.737,0,2.726.775,2.967,2.352l.107,1.283a5.658,5.658,0,0,1,2.619-2.753,8.108,8.108,0,0,1,3.956-1.042,7.943,7.943,0,0,1,6.281,2.486c1.47,1.657,2.192,4.036,2.192,7.083,0,.641,0,1.55-.027,2.726s-.027,2.272-.027,3.261v3.929c0,2-1.176,3.02-3.5,3.02a3.466,3.466,0,0,1-2.245-.695,2.455,2.455,0,0,1-.855-2.085c0-.775.027-2.138.053-4.063.027-1.951.053-3.395.053-4.3a9.511,9.511,0,0,0-.748-4.2,2.91,2.91,0,0,0-2.807-1.55q-2.887-.04-3.849,1.764a12.114,12.114,0,0,0-.989,5.506l.053,7.057a2.219,2.219,0,0,1-.936,2,3.908,3.908,0,0,1-2.272.615q-3.368,0-3.368-2.726c0-.8.027-2.593.107-5.373.053-2.78.08-5.239.053-7.377Z" transform="translate(-528.378 -99.498)"/><path class="a" d="M713.859,112.041a9.7,9.7,0,0,1,6.709,3.849,12.2,12.2,0,0,1,2.3,7.27,10.962,10.962,0,0,1-3.368,8.233,11.678,11.678,0,0,1-8.473,3.234,11.357,11.357,0,0,1-7.939-3.02,10.058,10.058,0,0,1-3.288-7.778,11.64,11.64,0,0,1,3.341-8.66q3.328-3.288,9.141-3.368A4.25,4.25,0,0,1,713.859,112.041Zm1.149,7.11a4.567,4.567,0,0,0-3.555-1.711,4.963,4.963,0,0,0-3.8,1.737,6.924,6.924,0,0,0-1.39,4.624,5.17,5.17,0,0,0,1.417,3.689,4.377,4.377,0,0,0,3.234,1.5,5.1,5.1,0,0,0,3.822-1.657,6.031,6.031,0,0,0,1.577-4.33A5.8,5.8,0,0,0,715.009,119.151Z" transform="translate(-599.084 -99.424)"/><path class="a" d="M346.067,281.073c0,1.256.053,3.074.187,5.506q0,2.726-3.368,2.726a2.285,2.285,0,0,1-1.844-.775A6.179,6.179,0,0,1,340,285.992a6.95,6.95,0,0,1-6.415,3.448,10.088,10.088,0,0,1-7.671-3.074A10.762,10.762,0,0,1,323,278.641a11.793,11.793,0,0,1,3.181-8.553A10.7,10.7,0,0,1,334.2,266.8a6.7,6.7,0,0,1,5.934,2.967,8.05,8.05,0,0,1,.428-1.5,2.6,2.6,0,0,1,2.486-1.336c2.058,0,3.074,1.042,3.074,3.127l-.053,3.742Zm-15,1.283a4.435,4.435,0,0,0,3.395,1.524,5.14,5.14,0,0,0,3.822-1.577,6.512,6.512,0,0,0,.027-8.34,4.873,4.873,0,0,0-3.582-1.524,4.609,4.609,0,0,0-3.662,1.657,6.644,6.644,0,0,0-1.417,4.437A5.573,5.573,0,0,0,331.072,282.356Z" transform="translate(-323 -212.994)"/><path class="a" d="M449.954,233.518v10.317c0,.535,0,1.176.027,1.924s.027,1.764.053,3.074.027,2.513.027,3.608c0,1.818-1.042,2.726-3.154,2.726-1.524,0-2.459-.615-2.78-1.871l-.241-1.63a7.272,7.272,0,0,1-6.575,3.608,9.939,9.939,0,0,1-7.751-3.154,10.927,10.927,0,0,1-2.86-7.564,11.946,11.946,0,0,1,3.208-8.473,10.733,10.733,0,0,1,8.152-3.421,6.409,6.409,0,0,1,5.426,2.486l-.053-11.654c0-2.272,1.069-3.395,3.207-3.395a4.1,4.1,0,0,1,2.593.722,2.7,2.7,0,0,1,.855,2.352Zm-15.209,14.567a4.678,4.678,0,0,0,3.582,1.55,5.2,5.2,0,0,0,3.822-1.524,5.505,5.505,0,0,0,1.524-4.063,5.806,5.806,0,0,0-1.47-4.223,4.806,4.806,0,0,0-3.608-1.524,4.994,4.994,0,0,0-3.822,1.63,6.126,6.126,0,0,0-1.5,4.357A5.331,5.331,0,0,0,434.745,248.085Z" transform="translate(-398.982 -178.777)"/><path class="a" d="M539.059,282.631a4.943,4.943,0,0,0,3.234,1.149,7.819,7.819,0,0,0,4.036-1.1,4.625,4.625,0,0,1,2.165-.668,2.469,2.469,0,0,1,1.9.936,3.263,3.263,0,0,1,.8,2.192,2.87,2.87,0,0,1-1.63,2.539,14.562,14.562,0,0,1-7.725,1.764,10.774,10.774,0,0,1-7.778-3.127,10.372,10.372,0,0,1-3.261-7.591,12.041,12.041,0,0,1,3.261-8.58,10.577,10.577,0,0,1,8.019-3.448,9.981,9.981,0,0,1,7.11,2.7,8.382,8.382,0,0,1,2.86,6.2,4.848,4.848,0,0,1-.748,3.074c-.508.615-1.5.936-3.047.962-2,.053-5.613.107-10.8.134A4.082,4.082,0,0,0,539.059,282.631Zm-.16-9.622a4.159,4.159,0,0,0-1.47,2.753c2.646,0,5.266-.053,7.8-.187.374,0,.588-.107.588-.294a3.184,3.184,0,0,0-1.1-2.486,3.909,3.909,0,0,0-2.673-.962A4.614,4.614,0,0,0,538.9,273.008Z" transform="translate(-475.257 -212.921)"/><path class="a" d="M630.741,266.787a2.214,2.214,0,0,1,2.432,1.871l.294,1.924a6.693,6.693,0,0,1,2.459-2.913,6.138,6.138,0,0,1,3.421-1.069c1.951,0,2.913,1.016,2.913,3.02a3.638,3.638,0,0,1-.668,2.219,2.263,2.263,0,0,1-1.924.936h-.722a4.513,4.513,0,0,0-3.689,1.711,7.863,7.863,0,0,0-1.39,5.105c0,.267.027,1.39.08,3.395a25.346,25.346,0,0,1-.027,3.555c-.027,1.791-1.123,2.673-3.314,2.673a3.591,3.591,0,0,1-2.406-.722,3.321,3.321,0,0,1-.8-2.539c0-1.256.027-3.208.08-5.88s.08-4.544.08-5.64c0-.508,0-1.283-.027-2.352-.027-1.042-.027-1.844-.027-2.352C627.534,267.776,628.6,266.787,630.741,266.787Z" transform="translate(-546.036 -212.848)"/><path class="a" d="M711.567,281.073c0,1.256.053,3.074.187,5.506q0,2.726-3.368,2.726a2.285,2.285,0,0,1-1.844-.775,6.18,6.18,0,0,1-1.042-2.539,6.95,6.95,0,0,1-6.415,3.448,10.088,10.088,0,0,1-7.671-3.074,10.762,10.762,0,0,1-2.914-7.725,11.793,11.793,0,0,1,3.181-8.553A10.742,10.742,0,0,1,699.7,266.8a6.7,6.7,0,0,1,5.934,2.967,8.049,8.049,0,0,1,.428-1.5,2.6,2.6,0,0,1,2.486-1.336c2.058,0,3.074,1.042,3.074,3.127l-.053,3.742Zm-15,1.283a4.435,4.435,0,0,0,3.395,1.524,5.14,5.14,0,0,0,3.822-1.577,6.512,6.512,0,0,0,.027-8.34,4.873,4.873,0,0,0-3.582-1.524,4.609,4.609,0,0,0-3.662,1.657,6.644,6.644,0,0,0-1.417,4.437A5.573,5.573,0,0,0,696.572,282.356Z" transform="translate(-590.805 -212.994)"/><path class="a" d="M798.281,221.575a3.787,3.787,0,0,1,2.432-.775,3.691,3.691,0,0,1,2.566.8,2.95,2.95,0,0,1,.829,2.432q-.2,10.1-.187,22.827,0,1.042.08,2.967c.053,1.283.08,2.192.08,2.78a3.086,3.086,0,0,1-.722,2.165,3.892,3.892,0,0,1-2.406.855c-2.432.214-3.662-1.256-3.689-4.464q-.2-7.057.053-27.371A2.672,2.672,0,0,1,798.281,221.575Z" transform="translate(-670.435 -179.29)"/><path class="a" d="M863.454,233.518v10.317c0,.535,0,1.176.027,1.924s.027,1.764.053,3.074.027,2.513.027,3.608c0,1.818-1.042,2.726-3.154,2.726-1.524,0-2.459-.615-2.78-1.871l-.241-1.63a7.272,7.272,0,0,1-6.575,3.608,9.9,9.9,0,0,1-7.751-3.154,10.927,10.927,0,0,1-2.86-7.564,11.946,11.946,0,0,1,3.207-8.473,10.733,10.733,0,0,1,8.152-3.421,6.409,6.409,0,0,1,5.426,2.486l-.053-11.654c0-2.272,1.069-3.395,3.208-3.395a4.1,4.1,0,0,1,2.593.722,2.7,2.7,0,0,1,.855,2.352Zm-15.209,14.567a4.678,4.678,0,0,0,3.582,1.55,5.2,5.2,0,0,0,3.822-1.524,5.5,5.5,0,0,0,1.524-4.063,5.806,5.806,0,0,0-1.47-4.223,4.806,4.806,0,0,0-3.608-1.524,4.994,4.994,0,0,0-3.822,1.63,6.126,6.126,0,0,0-1.5,4.357A5.331,5.331,0,0,0,848.245,248.085Z" transform="translate(-701.957 -178.777)"/><path class="a" d="M958.26,266.641a9.7,9.7,0,0,1,6.709,3.849,12.2,12.2,0,0,1,2.3,7.27,10.962,10.962,0,0,1-3.368,8.233,11.678,11.678,0,0,1-8.473,3.234,11.357,11.357,0,0,1-7.939-3.02,10.058,10.058,0,0,1-3.288-7.778,11.64,11.64,0,0,1,3.341-8.66q3.328-3.288,9.141-3.368A4.155,4.155,0,0,1,958.26,266.641Zm1.149,7.11a4.567,4.567,0,0,0-3.555-1.711,4.963,4.963,0,0,0-3.8,1.737,6.924,6.924,0,0,0-1.39,4.624,5.17,5.17,0,0,0,1.417,3.689,4.377,4.377,0,0,0,3.234,1.5,5.1,5.1,0,0,0,3.822-1.657,6.031,6.031,0,0,0,1.577-4.33A5.757,5.757,0,0,0,959.409,273.751Z" transform="translate(-778.158 -212.701)"/></g><g transform="translate(49.5 42.3)"><path class="b" d="M99.991,79.347a25.946,25.946,0,0,0,2.807-12.4C102.8,42.3,77.753,42.3,77.753,42.3H49.5l.053,41.029L49.5,124.278l36.218.16s24.644-.16,24.644-24.644C110.362,88.809,105.444,82.741,99.991,79.347Zm-34-20.581H78.154s8.313,0,8.313,8.179-8.313,8.313-8.313,8.313L65.992,75.1Zm19.86,49.315-19.886-.16V91.589H85.852s8.313,0,8.313,8.179S85.852,108.08,85.852,108.08Z" transform="translate(-49.5 -42.3)"/><path class="c" d="M50.1,103.9s0,16.332,16.332,16.332H86.158s24.644.16,24.644,24.644S86.158,169.52,86.158,169.52s16.332,0,16.332-16.332-16.332-16.332-16.332-16.332l-19.726-.321S50.1,136.536,50.1,120.2Z" transform="translate(-49.94 -87.435)"/><g class="d" transform="translate(0.027 26.114)"><path class="e" d="M62.965,162.88l1.336.027c-4.223-.535-14.594-3.181-14.594-16.2v-6.522A1.162,1.162,0,0,1,49.6,140l.027,14.915v1.711C54.331,162.853,62.965,162.88,62.965,162.88Z" transform="translate(-49.6 -140)"/></g><g class="f" transform="translate(39.131 49.77)"><path class="g" d="M201.3,234.354c3.769,2.3,7.19,6.308,7.778,13.284a22.7,22.7,0,0,0,.214-3.127c0-11.921-8.687-15.129-13.391-16.011A7.3,7.3,0,0,1,201.3,234.354Z" transform="translate(-195.9 -228.5)"/></g><path class="h" d="M75.922,149.651A20.508,20.508,0,0,1,66.7,147.7c2.406,2.619,6.148,4.624,11.868,4.624v-2.673Z" transform="translate(-62.103 -119.527)"/><path class="i" d="M166.732,155a8.878,8.878,0,0,1-5.132,2.673h6.228a30.574,30.574,0,0,1,14.3,4.25h0a22.279,22.279,0,0,0,1.417-3.234A36.183,36.183,0,0,0,169.138,155Z" transform="translate(-131.637 -124.876)"/></g></g></svg>