<svg xmlns="http://www.w3.org/2000/svg" width="19.221" height="20.36" viewBox="0 0 19.221 20.36"><defs><style>.a{fill:none;stroke:#3c4856;stroke-linecap:round;stroke-linejoin:round;stroke-width:2px;}</style></defs><path class="a" d="M8.106,16.7C3.744,18.005,3.744,14.516,2,14.08m12.211,5.233V15.938a2.939,2.939,0,0,0-.82-2.277c2.739-.305,5.617-1.343,5.617-6.106A4.744,4.744,0,0,0,17.7,4.286,4.422,4.422,0,0,0,17.622,1s-1.029-.305-3.41,1.291a11.671,11.671,0,0,0-6.106,0C5.724.691,4.7,1,4.7,1a4.422,4.422,0,0,0-.079,3.288,4.745,4.745,0,0,0-1.308,3.3c0,4.728,2.878,5.766,5.617,6.106a2.939,2.939,0,0,0-.82,2.25v3.376" transform="translate(-0.787 0.046)"/></svg>